/* XPM */
static char *frwd[] = {
/* columns rows colors chars-per-pixel */
"32 32 2 1",
"  c #000000",
"1 c None",
/* pixels */
"11111111111111111111111111111111",
"11111111111111111111111111111111",
"11111111111111111111111111111111",
"11111111111111111111111111111111",
"11111111111111111111111111111111",
"11111111111111111111111111111111",
"11111111111111111111111111111111",
"11111111111111111111111111111111",
"11111111111111111111111111111111",
"11111111111111111111111111111111",
"1111 111111111 11111111   111111",
"1111   1111111   111111   111111",
"1111    111111    11111   111111",
"1111      1111      111   111111",
"1111        11        1   111111",
"1111        11            111111",
"1111                      111111",
"1111        11        1   111111",
"1111       111      111   111111",
"1111     11111     1111   111111",
"1111   1111111   111111   111111",
"1111  11111111 11111111   111111",
"11111111111111111111111111111111",
"11111111111111111111111111111111",
"11111111111111111111111111111111",
"11111111111111111111111111111111",
"11111111111111111111111111111111",
"11111111111111111111111111111111",
"11111111111111111111111111111111",
"11111111111111111111111111111111",
"11111111111111111111111111111111",
"11111111111111111111111111111111"
};
