/* XPM */
static const char *play_xpm[] = {
/* columns rows colors chars-per-pixel */
"24 24 2 1",
"  c None",
"@ c #000000",
/* pixels */
"                        ",
"                        ",
"                        ",
"                        ",
"    @@                  ",
"    @@@@                ",
"    @@@@@@              ",
"    @@@@@@@@            ",
"    @@@@@@@@@@          ",
"    @@@@@@@@@@@@        ",
"    @@@@@@@@@@@@@@      ",
"    @@@@@@@@@@@@@@@@    ",
"    @@@@@@@@@@@@@@@@    ",
"    @@@@@@@@@@@@@@      ",
"    @@@@@@@@@@@@        ",
"    @@@@@@@@@@          ",
"    @@@@@@@@            ",
"    @@@@@@              ",
"    @@@@                ",
"    @@                  ",
"                        ",
"                        ",
"                        ",
"                        ",
};
