/* XPM */
static const char *stop_xpm[] = {
/* columns rows colors chars-per-pixel */
"32 32 2 1",
"  c #000000",
"1 c None",
/* pixels */
"11111111111111111111111111111111",
"11111111111111111111111111111111",
"11111111111111111111111111111111",
"11111111111111111111111111111111",
"11111111111111111111111111111111",
"11111111111111111111111111111111",
"11111111111111111111111111111111",
"11111111111111111111111111111111",
"11111111                11111111",
"11111111                11111111",
"11111111                11111111",
"11111111                11111111",
"11111111                11111111",
"11111111                11111111",
"11111111                11111111",
"11111111                11111111",
"11111111                11111111",
"11111111                11111111",
"11111111                11111111",
"11111111                11111111",
"11111111                11111111",
"11111111                11111111",
"11111111                11111111",
"11111111                11111111",
"11111111111111111111111111111111",
"11111111111111111111111111111111",
"11111111111111111111111111111111",
"11111111111111111111111111111111",
"11111111111111111111111111111111",
"11111111111111111111111111111111",
"11111111111111111111111111111111",
"11111111111111111111111111111111"
};
